# xmcd CD database file
#
# Track frame offsets:
#	150
#	17992
#	35565
#	51285
#	63125
#	82825
#	98410
#	114902
#	132310
#	147432
#	169232
#	185777
#	203075
#	217687
#
# Disc length: 3109 seconds
#
# Revision: 6
# Processed by: cddbd v1.5.2PL0 Copyright (c) Steve Scherf et al.
# Submitted via: CDex 1.51
#
DISCID=bc0c230e
DTITLE=Andre Hazes - Met Heel Mijn Hart
DYEAR=1993
DGENRE=Nederlandstalig
TTITLE0=Ik Dacht Dat Het Uit Was
TTITLE1=Alleen Met Jou
TTITLE2=Uit M'n Bol
TTITLE3=Jij Hebt Gelijk M'n Schat
TTITLE4=Wat Ik Ook Doe
TTITLE5=Dat Was De Zomer
TTITLE6='N Afscheidskus
TTITLE7=Mag Ik Dan Voor Altijd Bij Je Blijven
TTITLE8=Nou Ben Ik Aan De Beurt
TTITLE9=Ik Leef M'n Eigen Leven
TTITLE10=Oh Als Jij Eens Wist
TTITLE11=Wees Blij Dat Je Nog Leven Mag
TTITLE12=Laila
TTITLE13=Droomland (Duet Met Paul De Leeuw)
EXTD=YEAR: 1993
EXTT0=
EXTT1=
EXTT2=
EXTT3=
EXTT4=
EXTT5=
EXTT6=
EXTT7=
EXTT8=
EXTT9=
EXTT10=
EXTT11=
EXTT12=
EXTT13=
PLAYORDER=
